name C:\Users\u0101727\Documents\MyRepositories\paper-ad\trackingsimulations_3d\Results\TrackSim\IK_c14.mot
datacolumns 32
datarows 16
range 3.45000000 3.69000000
endheader
time	pelvis_tilt	pelvis_list	pelvis_rotation	pelvis_tx	pelvis_ty	pelvis_tz	hip_flexion_l	hip_adduction_l	hip_rotation_l	hip_flexion_r	hip_adduction_r	hip_rotation_r	knee_angle_l	knee_angle_r	ankle_angle_l	ankle_angle_r	subtalar_angle_l	subtalar_angle_r	lumbar_extension	lumbar_bending	lumbar_rotation	arm_flex_l	arm_add_l	arm_rot_l	arm_flex_r	arm_add_r	arm_rot_r	elbow_flex_l	elbow_flex_r	pro_sup_l	pro_sup_r	
          3.45000000	         -2.16656090	          4.38660178	          4.40763811	         -0.50700770	          0.94267639	         -0.23007258	         15.04269191	          9.17718643	          3.45735253	         13.63544318	         -1.81883709	         -2.18601610	        -22.13826941	        -65.10099977	          5.22953328	        -12.89395759	          5.74769004	        -13.56862641	         -4.51915329	         -4.06361503	         -3.34037158	         -1.83229688	        -15.69958035	         17.87098681	         -4.80699813	        -16.91106172	         12.14008517	         21.28591621	         23.55367384	         86.51662706	         86.51662706	
          3.46600000	         -2.19582895	          4.17243315	          4.34851862	         -0.48871179	          0.94556069	         -0.23063168	         13.64544314	          8.93056793	          3.80153237	         16.82605436	         -1.90101431	         -2.03717418	        -21.98827752	        -66.37693362	          6.87777218	        -10.75121513	          5.94762628	        -12.84468310	         -4.69621581	         -3.91628299	         -3.82790061	         -1.63301378	        -15.90522521	         17.29348282	         -5.00437100	        -16.82691300	         12.39629723	         22.62753127	         23.05014228	         86.51662706	         86.51662706	
          3.48200000	         -2.17239107	          3.88859510	          4.28427041	         -0.47032429	          0.94823942	         -0.23113022	         12.13062064	          8.59303094	          4.12648559	         19.73525601	         -1.90332752	         -1.95397121	        -21.64311161	        -66.66303293	          8.04812263	         -8.84377739	          6.01651288	        -11.87646331	         -4.88993225	         -3.66363150	         -4.29168040	         -1.42368645	        -16.08840264	         16.78468542	         -5.27480602	        -16.76435490	         12.44566651	         23.94226065	         22.62531893	         86.51662706	         86.51662706	
          3.49800000	         -2.11560601	          3.52186143	          4.32481367	         -0.45182642	          0.95057101	         -0.23173786	         10.55807354	          8.19701847	          4.56407463	         22.31204066	         -1.83525336	         -2.03822267	        -21.18751940	        -65.95569677	          8.76965649	         -7.17096261	          5.85513231	        -10.92384660	         -5.08662061	         -3.28570278	         -4.82460830	         -1.19941181	        -16.25387845	         16.38274631	         -5.63910178	        -16.72165396	         12.20094635	         25.21763114	         22.32651698	         86.51662706	         86.51662706	
          3.51400000	         -2.03723245	          3.10839781	          4.43868697	         -0.43319356	          0.95243946	         -0.23238717	          8.94461431	          7.75705462	          5.05909735	         24.54472893	         -1.74019321	         -2.25973464	        -20.65934257	        -64.31525022	          9.22421306	         -5.57757027	          5.56711554	        -10.19381429	         -5.27762833	         -2.83302733	         -5.38901253	         -0.96580312	        -16.42114393	         16.07889500	         -6.07316214	        -16.68327559	         11.70153960	         26.46017919	         22.11705306	         86.51662706	         86.51662706	
          3.53000000	         -1.94113503	          2.68864868	          4.58079057	         -0.41440521	          0.95376229	         -0.23297726	          7.29178060	          7.28305700	          5.52057503	         26.42508584	         -1.64654843	         -2.56871259	        -20.08479920	        -61.80586411	          9.59707669	         -3.94196331	          5.30044784	         -9.91957459	         -5.46423751	         -2.36338598	         -5.94169578	         -0.72909724	        -16.60668147	         15.84723456	         -6.53302176	        -16.63236587	         11.04630617	         27.66833586	         21.92994293	         86.51662706	         86.51662706	
          3.54600000	         -1.82779800	          2.30234344	          4.72444226	         -0.39542829	          0.95449562	         -0.23345575	          5.58460038	          6.79618475	          5.88566465	         27.93864198	         -1.58408927	         -2.92129376	        -19.45729655	        -58.49713095	          9.98129335	         -2.34469836	          5.15879743	        -10.05951584	         -5.65076340	         -1.92843040	         -6.46339219	         -0.49536314	        -16.81582085	         15.66929429	         -6.98094487	        -16.55793038	         10.33241380	         28.82053522	         21.71051362	         86.51662706	         86.51662706	
          3.56200000	         -1.69780540	          1.97979602	          4.86749371	         -0.37623535	          0.95463161	         -0.23382955	          3.81050407	          6.32461937	          6.14580673	         29.08128358	         -1.58397617	         -3.29681874	        -18.76529304	        -54.49725969	         10.39364150	         -1.18245672	          5.17546460	        -10.27573741	         -5.84171907	         -1.56304776	         -6.95880269	         -0.26572003	        -17.04283434	         15.53917843	         -7.39199817	        -16.45667879	          9.63399405	         29.88091774	         21.42920686	         86.51662706	         86.51662706	
          3.57800000	         -1.55805015	          1.73420781	          5.02016749	         -0.35681948	          0.95418706	         -0.23413314	          1.97815684	          5.89104871	          6.33444059	         29.87183489	         -1.66646098	         -3.72370563	        -18.01620228	        -49.91598689	         10.81542462	         -0.85812278	          5.32650921	        -10.38518702	         -6.03443848	         -1.27998214	         -7.43778293	         -0.03441025	        -17.27358776	         15.46085482	         -7.75164503	        -16.33161660	          9.00495854	         30.81018986	         21.07218638	         86.51662706	         86.51662706	
          3.59400000	         -1.41873009	          1.57315013	          5.18079865	         -0.33718553	          0.95319345	         -0.23438362	          0.11152890	          5.51798761	          6.50144473	         30.35140505	         -1.83274196	         -4.21494000	        -17.23560058	        -44.87481302	         11.21284075	         -1.22213627	          5.54606992	        -10.06939184	         -6.22190089	         -1.08618333	         -7.89100655	          0.20923823	        -17.49061697	         15.44189708	         -8.05170259	        -16.18815631	          8.48638954	         31.57150128	         20.63016580	         86.51662706	         86.51662706	
          3.61000000	         -1.28907444	          1.49162928	          5.34191966	         -0.31733220	          0.95169458	         -0.23457095	         -1.75722513	          5.21282915	          6.69577612	         30.56740194	         -2.05496403	         -4.78259750	        -16.46518328	        -39.50080587	         11.55992722	         -1.57436611	          5.76853472	         -9.30510036	         -6.39498222	         -0.97652828	         -8.29611051	          0.47720463	        -17.67648545	         15.49108563	         -8.29002087	        -16.03179848	          8.10923491	         32.13296993	         20.09284657	         86.51662706	         86.51662706	
          3.62600000	         -1.17708188	          1.48022883	          5.51587194	         -0.29725098	          0.94975914	         -0.23470767	         -3.59064912	          4.97578691	          6.97543627	         30.56113135	         -2.32228487	         -5.47625648	        -15.75774319	        -33.88857723	         11.83066211	         -1.34824471	          5.93217653	         -8.02531590	         -6.54357686	         -0.93993914	         -8.64656872	          0.77949973	        -17.81649615	         15.61887347	         -8.47089361	        -15.86620820	          7.89682613	         32.46943890	         19.45085235	         86.51662706	         86.51662706	
          3.64200000	         -1.08542533	          1.52292166	          5.71674062	         -0.27692191	          0.94747938	         -0.23479834	         -5.35735855	          4.78973996	          7.33805668	         30.38141656	         -2.62679439	         -6.35343258	        -15.16264952	        -28.18474404	         12.01060640	         -0.76176878	          6.03106991	         -6.18152477	         -6.66110676	         -0.95756015	         -8.94612000	          1.11526725	        -17.90235042	         15.83474508	         -8.59905526	        -15.69381600	          7.86383525	         32.56832921	         18.70254479	         86.51662706	         86.51662706	
          3.65800000	         -1.00706587	          1.59655320	          5.93367656	         -0.25629126	          0.94494938	         -0.23478905	         -7.04265958	          4.62022812	          7.70645019	         30.08894145	         -2.92669593	         -7.41865706	        -14.71901900	        -22.68061909	         12.10357457	         -0.14068491	          6.12366307	         -3.95515223	         -6.74731135	         -1.00568441	         -9.18571563	          1.46713558	        -17.93393482	         16.13924280	         -8.68044227	        -15.51623101	          8.01488364	         32.43538884	         17.85777064	         86.51662706	         86.51662706	
          3.67400000	         -0.93059394	          1.68062667	          6.14484851	         -0.23529677	          0.94225622	         -0.23460867	         -8.63271999	          4.43921430	          8.00805506	         29.77230322	         -3.17482543	         -8.61148014	        -14.47321215	        -17.84738598	         12.11362916	          0.38784474	          6.27154300	         -1.63314562	         -6.80645029	         -1.06409854	         -9.35457187	          1.80643705	        -17.91716615	         16.51965218	         -8.72110924	        -15.33578653	          8.34619489	         32.09597180	         16.94031301	         86.51662706	         86.51662706	
          3.69000000	         -0.84741327	          1.75332784	          6.35725463	         -0.21389158	          0.93949244	         -0.23424539	        -10.09802041	          4.21551718	          8.16322676	         29.50595526	         -3.34502698	         -9.84542745	        -14.48900751	        -14.11238487	         12.04531366	          0.94564903	          6.56244535	          0.47189426	         -6.84060126	         -1.10575860	         -9.47881491	          2.09600932	        -17.85904834	         16.95311247	         -8.72696619	        -15.15842992	          8.84139510	         31.59008568	         15.98995410	         86.51662706	         86.51662706	
